<?xml version="1.0" encoding="UTF-8" standalone="no"?>
<!-- Created with Inkscape (http://www.inkscape.org/) -->

<svg
   width="500mm"
   height="500mm"
   viewBox="0 0 500.00003 500.00003"
   version="1.1"
   id="svg1"
   inkscape:version="1.4 (86a8ad7, 2024-10-11)"
   sodipodi:docname="MinefieldBackground.svg"
   xmlns:inkscape="http://www.inkscape.org/namespaces/inkscape"
   xmlns:sodipodi="http://sodipodi.sourceforge.net/DTD/sodipodi-0.dtd"
   xmlns="http://www.w3.org/2000/svg"
   xmlns:svg="http://www.w3.org/2000/svg">
  <sodipodi:namedview
     id="namedview1"
     pagecolor="#ffffff"
     bordercolor="#000000"
     borderopacity="0.25"
     inkscape:showpageshadow="2"
     inkscape:pageopacity="0.0"
     inkscape:pagecheckerboard="0"
     inkscape:deskcolor="#d1d1d1"
     inkscape:document-units="mm"
     inkscape:zoom="0.37104026"
     inkscape:cx="720.94602"
     inkscape:cy="1074.0074"
     inkscape:window-width="1920"
     inkscape:window-height="1051"
     inkscape:window-x="-9"
     inkscape:window-y="-9"
     inkscape:window-maximized="1"
     inkscape:current-layer="svg1" />
  <defs
     id="defs1" />
  <rect
     style="fill:#44aa00;stroke-width:0"
     id="rect39"
     width="500"
     height="500"
     x="0"
     y="0" />
  <g
     inkscape:label="Layer 1"
     inkscape:groupmode="layer"
     id="layer1" />
  <g
     id="g16">
    <path
       id="path6"
       style="fill:#447821;stroke-width:0"
       transform="rotate(-37.504662,41.611506,193.92829)"
       d="M 226.76111,338.0024 90.135098,250.47253 -34.587319,354.26299 -27.097237,192.17646 -179.34362,136.05891 -35.227528,61.502249 -62.751495,-98.405763 73.874515,-10.875897 198.59693,-114.66636 191.10685,47.420171 343.35323,103.53772 199.23714,178.09439 Z" />
    <path
       id="path6-8"
       style="fill:#44aa00;stroke-width:0"
       transform="matrix(0.68507793,-0.52576735,0.51254055,0.66784334,-87.291164,76.508725)"
       d="M 226.76111,338.0024 90.135098,250.47253 -34.587319,354.26299 -27.097237,192.17646 -179.34362,136.05891 -35.227528,61.502249 -62.751495,-98.405763 73.874515,-10.875897 198.59693,-114.66636 191.10685,47.420171 343.35323,103.53772 199.23714,178.09439 Z" />
    <path
       id="path6-6"
       style="fill:#447821;stroke-width:0"
       transform="rotate(-37.504662,501.33179,-104.58026)"
       d="M 226.76111,338.0024 90.135098,250.47253 -34.587319,354.26299 -27.097237,192.17646 -179.34362,136.05891 -35.227528,61.502249 -62.751495,-98.405763 73.874515,-10.875897 198.59693,-114.66636 191.10685,47.420171 343.35323,103.53772 199.23714,178.09439 Z" />
    <path
       id="path6-8-14"
       style="fill:#44aa00;stroke-width:0"
       transform="matrix(0.68507793,-0.52576735,0.51254054,0.66784334,188.04487,292.55852)"
       d="M 226.76111,338.0024 90.135098,250.47253 -34.587319,354.26299 -27.097237,192.17646 -179.34362,136.05891 -35.227528,61.502249 -62.751495,-98.405763 73.874515,-10.875897 198.59693,-114.66636 191.10685,47.420171 343.35323,103.53772 199.23714,178.09439 Z" />
    <path
       id="path6-1"
       style="fill:#447821;stroke-width:0"
       transform="rotate(-9.0377943,54.690403,-2237.9386)"
       d="M 226.76111,338.0024 90.135098,250.47253 -34.587319,354.26299 -27.097237,192.17646 -179.34362,136.05891 -35.227528,61.502249 -62.751495,-98.405763 73.874515,-10.875897 198.59693,-114.66636 191.10685,47.420171 343.35323,103.53772 199.23714,178.09439 Z" />
    <path
       id="path6-8-1"
       style="fill:#44aa00;stroke-width:0"
       transform="matrix(0.8528544,-0.13565561,0.1322429,0.83139904,366.43666,1.1267919)"
       d="M 226.76111,338.0024 90.135098,250.47253 -34.587319,354.26299 -27.097237,192.17646 -179.34362,136.05891 -35.227528,61.502249 -62.751495,-98.405763 73.874515,-10.875897 198.59693,-114.66636 191.10685,47.420171 343.35323,103.53772 199.23714,178.09439 Z" />
    <path
       id="path7"
       style="fill:#d40000;stroke-width:0"
       inkscape:transform-center-x="-8.0244636"
       inkscape:transform-center-y="0.44071094"
       d="m 89.135659,501.29891 -53.074032,25.13747 -9.380833,57.97194 -40.307932,-42.7085 -58.033424,8.99261 28.16236,-51.53277 -26.485796,-52.4142 57.713228,10.85949 41.664302,-41.38636 7.506377,58.24431 z" />
    <path
       id="path8"
       style="fill:#d40000;stroke-width:0"
       inkscape:transform-center-x="3.983186"
       inkscape:transform-center-y="2.3395263"
       d="m 526.2569,507.0036 -43.40157,-2.34299 -26.53511,34.4249 -11.1835,-42.00137 -40.93983,-14.59851 36.48978,-23.61528 1.23291,-43.44728 33.73543,27.40632 41.7018,-12.25338 -15.64013,40.55332 z" />
    <path
       id="path9"
       style="fill:#d40000;stroke-width:0"
       inkscape:transform-center-x="3.0544992"
       inkscape:transform-center-y="-2.7467062"
       d="m 526.96999,43.4982 -37.84283,-12.479307 -31.73383,24.099311 0.17444,-39.846988 -32.7261,-22.7335729 37.95065,-12.1474871 11.50799,-38.149432 23.28034,32.339429 39.83843,-0.844072 -23.5626,32.1343522 z" />
    <path
       id="path10"
       style="fill:#d40000;stroke-width:0"
       inkscape:transform-center-x="2.0666195"
       inkscape:transform-center-y="-2.6206411"
       d="M -4.9915981,59.899159 -3.9774692,27.714733 -29.915304,8.6334718 1.0072868,-0.34756888 11.139413,-30.91235 29.236496,-4.2785123 61.436329,-4.0873246 41.698351,21.354333 51.466816,52.037274 21.170991,41.127246 Z" />
    <path
       id="path13"
       style="fill:#d40000;stroke-width:0"
       inkscape:transform-center-x="-0.24659876"
       inkscape:transform-center-y="1.2937851"
       d="m -9.9831928,402.89316 7.240795,-7.79807 -2.3189446,-10.38564 9.6539337,4.47667 9.1607367,-5.41479 -1.274336,10.56481 7.980592,7.03911 -10.441517,2.05274 -4.2284601,9.7652 -5.17887625,-9.29614 z" />
    <path
       id="path11"
       style="fill:#d40000;stroke-width:0"
       inkscape:transform-center-x="-0.21024368"
       inkscape:transform-center-y="-2.6850694"
       d="m 480.61944,384.35296 19.91944,-2.43792 9.28434,-17.79124 8.47403,18.19115 19.7895,3.33214 -14.68219,13.68066 2.94624,19.85061 -17.54813,-9.73603 -17.96862,8.93622 3.83685,-19.69787 z" />
    <path
       id="path12"
       style="fill:#d40000;stroke-width:0"
       inkscape:transform-center-x="1.0084469"
       inkscape:transform-center-y="-1.6240329"
       d="m 382.92678,511.99519 -16.90851,-6.44097 -14.89162,10.27733 0.90071,-18.07132 -14.37609,-10.9869 17.46519,-4.72772 6.0067,-17.06761 9.89337,15.14943 18.08844,0.43854 -11.35075,14.09058 z" />
    <path
       id="path14"
       style="fill:#d40000;stroke-width:0"
       inkscape:transform-center-x="-0.21024368"
       inkscape:transform-center-y="2.6850694"
       d="m -26.384154,103.39736 14.05146,-14.327725 -3.836851,-19.697863 17.9686199,8.936221 17.5481291,-9.736037 -2.946242,19.850617 14.682191,13.680657 -19.789497,3.33214 -8.4740364,18.19115 -9.2843395,-17.79124 z" />
    <path
       id="path15"
       style="fill:#d40000;stroke-width:0"
       inkscape:transform-center-x="0.3305616"
       inkscape:transform-center-y="1.7951447"
       d="m 509.85596,79.865544 -14.61973,1.406547 -7.12947,12.840773 -5.85545,-13.469539 -14.41542,-2.812509 11.00086,-9.731179 -1.77976,-14.578999 12.65435,7.45534 13.31548,-6.197809 -3.18004,14.338832 z" />
    <path
       id="path16"
       style="fill:#d40000;stroke-width:0"
       inkscape:transform-center-x="0.32165638"
       inkscape:transform-center-y="1.221068"
       d="m 398.61464,-14.974789 9.07747,5.5532402 9.72079,-4.3295872 -2.47635,10.3492357 7.12157,7.9071011 -10.60795,0.8429389 -5.31941,9.2164443 -4.07972,-9.8282707 -10.40915,-2.2110251 8.08654,-6.9171444 z" />
  </g>
</svg>
